<svg width="43" height="37" viewBox="0 0 43 37" fill="none" xmlns="http://www.w3.org/2000/svg">
<path fill-rule="evenodd" clip-rule="evenodd" d="M24.8512 20.9837C21.9834 20.0467 19.7025 18.084 18.6135 15.6163L7.70164 29.1134L9.16547 30.373L24.8512 20.9837ZM18.0404 10.926C18.8281 6.48527 23.2857 3.08332 28.6667 3.08332C34.6038 3.08332 39.4167 7.22468 39.4167 12.3333C39.4167 16.9635 35.463 20.7992 30.3021 21.477L8.75118 34.377L3.04834 29.4699L18.0404 10.926ZM34.9764 15.2599C35.523 14.3891 35.8333 13.3924 35.8333 12.3333C35.8333 8.92754 32.6247 6.16663 28.6666 6.16663C27.4239 6.16663 26.255 6.43882 25.2361 6.9177C25.7781 8.37292 27.6422 10.8132 29.0378 12.014C30.4105 13.1952 33.1974 14.7634 34.9764 15.2599ZM32.3093 17.6451C31.2419 18.1883 29.9966 18.5 28.6666 18.5C24.7086 18.5 21.5 15.7391 21.5 12.3333C21.5 11.1993 21.8557 10.1368 22.4764 9.22386C23.4738 11.0492 25.0742 12.964 26.504 14.1943C27.9154 15.4087 30.1607 16.7826 32.3093 17.6451Z" fill="white"/>
</svg>
